<svg xmlns="http://www.w3.org/2000/svg" viewBox="7 18.5 54.5 36.5" fill="none" stroke="#4b5058" stroke-width="1.4" stroke-linecap="round" stroke-linejoin="round">
  <!-- Orange roast drumstick behind a steak -->
  <ellipse cx="44" cy="30" rx="9" ry="11" transform="rotate(40 44 30)" fill="#e27f2c"/>
  <path stroke-width="4" d="M49.5 37.5l6 8.5"/>
  <path stroke="#fff" stroke-width="1.25" d="M49.5 37.5l6 8.5"/>
  <circle cx="55.3" cy="48.6" r="2.4" fill="#fff"/>
  <circle cx="57.9" cy="45.7" r="2.4" fill="#fff"/>
  <path fill="#ec7f76" d="M8 42c0-8 7-13 16-13 8 0 14 4 15 10 1 5-3 7-7 8-3 1-5 4-9 6-8 3-15-2-15-11z"/>
  <circle cx="26" cy="37" r="3" fill="#fff"/>
  <path stroke="#fff" stroke-width="1.1" d="M13 42c2.5-1.5 5-1.5 7.5 0M20 47c2-1 4-1 6 0"/>
</svg>
