<svg xmlns="http://www.w3.org/2000/svg" viewBox="6 12 56 44" fill="none" stroke="#4b5058" stroke-width="1.4" stroke-linecap="round" stroke-linejoin="round">
  <!-- Dog food bag with an orange paw on the label + a bowl of kibble -->
  <path fill="#ec7f76" d="M9 18h26l2 5v30a2 2 0 0 1-2 2H9a2 2 0 0 1-2-2V23z"/>
  <rect x="8" y="13" width="28" height="5" rx="1" fill="#fff"/>
  <circle cx="22" cy="36" r="8" fill="#fff"/>
  <g fill="#e27f2c" stroke="none"><ellipse cx="22" cy="38.4" rx="3" ry="2.4"/><circle cx="18.4" cy="34.8" r="1.25"/><circle cx="21" cy="33.4" r="1.25"/><circle cx="23.9" cy="33.6" r="1.25"/><circle cx="25.9" cy="35.4" r="1.25"/></g>
  <path fill="#ddb27c" d="M40 45c1.5-4 5-6 9.5-6s8 2 9.5 6z"/>
  <g fill="#b07d48" stroke="none"><circle cx="45" cy="42.6" r="1.2"/><circle cx="49.5" cy="41" r="1.2"/><circle cx="54" cy="42.6" r="1.2"/><circle cx="50" cy="44" r="1.2"/></g>
  <rect x="38" y="45" width="23" height="3.5" rx="1.75" fill="#fff"/>
  <path fill="#d3d7dc" d="M39.5 48.5h20l-2.5 6.5h-15z"/>
</svg>
